<svg width="29" height="29" fill="none" xmlns="http://www.w3.org/2000/svg"><path d="M14.5 29C22.508 29 29 22.508 29 14.5S22.508 0 14.5 0 0 6.492 0 14.5 6.492 29 14.5 29z" fill="url(#paint0_linear)"/><path d="M18.654 23.563h-8.308a4.914 4.914 0 01-4.909-4.91v-8.307a4.914 4.914 0 014.91-4.909h8.307a4.914 4.914 0 014.909 4.91v8.307a4.914 4.914 0 01-4.91 4.909zM10.346 6.948a3.402 3.402 0 00-3.398 3.398v8.308a3.402 3.402 0 003.398 3.398h8.308a3.402 3.402 0 003.398-3.398v-8.308a3.402 3.402 0 00-3.398-3.398h-8.308z" fill="#fff"/><path d="M14.5 19.031A4.537 4.537 0 019.969 14.5 4.536 4.536 0 0114.5 9.969a4.536 4.536 0 014.531 4.531 4.536 4.536 0 01-4.531 4.531zm0-7.552a3.024 3.024 0 00-3.02 3.021 3.024 3.024 0 003.02 3.02 3.024 3.024 0 003.02-3.02 3.024 3.024 0 00-3.02-3.02zm4.814-.755a1.038 1.038 0 100-2.077 1.038 1.038 0 000 2.077z" fill="#fff"/><defs><linearGradient id="paint0_linear" x1="6.183" y1="26.379" x2="22.818" y2="2.621" gradientUnits="userSpaceOnUse"><stop stop-color="#FFB900"/><stop offset="1" stop-color="#9100EB"/></linearGradient></defs></svg>