<svg width="38" height="38" fill="none" xmlns="http://www.w3.org/2000/svg"><path fill-rule="evenodd" clip-rule="evenodd" d="M19 38c10.493 0 19-8.507 19-19S29.493 0 19 0 0 8.507 0 19s8.507 19 19 19z" fill="#E0E2E8"/><path fill-rule="evenodd" clip-rule="evenodd" d="M19 5.278c7.579 0 13.722 6.143 13.722 13.722S26.58 32.722 19 32.722 5.278 26.58 5.278 19 11.42 5.278 19 5.278zm.822 5.59a7.565 7.565 0 012.514.744c.814.398 1.335.775 2.024 1.46.645.647 1.003 1.137 1.383 1.898.529 1.062.83 2.324.881 3.713.02.474.006.58-.103.715-.206.263-.659.22-.813-.075-.05-.098-.063-.182-.079-.561a9.818 9.818 0 00-.15-1.408c-.32-1.763-1.165-3.172-2.516-4.182-1.126-.845-2.29-1.257-3.814-1.346-.515-.03-.605-.049-.721-.138-.217-.17-.228-.572-.02-.758.128-.117.218-.133.66-.12.23.009.57.036.754.057zm-6.2.292c.094.032.24.108.325.162.515.342 1.95 2.175 2.42 3.09.268.523.357.91.273 1.197-.087.31-.23.472-.873.989-.258.209-.5.422-.537.48-.098.14-.177.416-.177.611.003.453.296 1.273.681 1.904.299.49.833 1.119 1.362 1.6.621.57 1.169.957 1.787 1.263.795.395 1.28.495 1.636.33.09-.04.184-.095.214-.119.027-.024.236-.279.464-.56.44-.553.54-.642.84-.745.383-.13.774-.095 1.167.105.299.155.95.558 1.37.85.553.388 1.736 1.352 1.896 1.544.282.347.33.791.14 1.281-.2.518-.981 1.487-1.526 1.902-.494.373-.844.517-1.305.539-.38.019-.537-.014-1.022-.214-3.809-1.568-6.849-3.908-9.263-7.123-1.261-1.68-2.221-3.42-2.878-5.227-.382-1.053-.401-1.511-.087-2.05.136-.227.714-.79 1.134-1.105.7-.52 1.023-.712 1.28-.766.177-.038.483-.009.678.062zm6.387 1.67c1.646.242 2.921 1.006 3.757 2.246.469.699.762 1.52.862 2.4.035.322.035.91-.003 1.007a.616.616 0 01-.246.268c-.106.054-.331.049-.456-.016-.209-.106-.271-.274-.271-.729 0-.701-.182-1.44-.497-2.015a4.119 4.119 0 00-1.513-1.573c-.545-.325-1.35-.566-2.086-.626-.266-.021-.412-.076-.513-.192a.493.493 0 01-.04-.612c.14-.22.358-.255 1.006-.157zm.578 2.046c.534.113.944.316 1.294.644.45.425.697.94.805 1.68.073.481.044.67-.127.828-.16.146-.456.152-.635.014-.13-.098-.171-.2-.2-.48-.036-.37-.101-.63-.212-.872-.239-.512-.66-.777-1.37-.864-.334-.04-.434-.078-.543-.206a.504.504 0 01.152-.758c.103-.051.147-.057.375-.043.14.008.35.032.46.057z" fill="#BF271F"/></svg>